<svg width="496" height="103" viewBox="0 0 496 103" fill="none" xmlns="http://www.w3.org/2000/svg">
<path d="M48.384 27.44C51.1147 27.44 53.5253 27.9733 55.616 29.04C57.7493 30.1067 59.4133 31.7493 60.608 33.968C61.8027 36.144 62.4 38.96 62.4 42.416V62H54.4V43.44C54.4 40.4107 53.7387 38.1493 52.416 36.656C51.0933 35.1627 49.1947 34.416 46.72 34.416C44.9707 34.416 43.4133 34.8 42.048 35.568C40.7253 36.336 39.68 37.4667 38.912 38.96C38.1867 40.4533 37.824 42.352 37.824 44.656V62H29.824V43.44C29.824 40.4107 29.1627 38.1493 27.84 36.656C26.5173 35.1627 24.6187 34.416 22.144 34.416C20.3947 34.416 18.8373 34.8 17.472 35.568C16.1493 36.336 15.104 37.4667 14.336 38.96C13.6107 40.4533 13.248 42.352 13.248 44.656V62H5.248V27.824H12.864V36.912L11.52 34.224C12.672 32.0053 14.336 30.32 16.512 29.168C18.7307 28.016 21.248 27.44 24.064 27.44C27.264 27.44 30.0373 28.2293 32.384 29.808C34.7733 31.3867 36.352 33.776 37.12 36.976L33.984 35.888C35.0933 33.328 36.928 31.28 39.488 29.744C42.048 28.208 45.0133 27.44 48.384 27.44ZM93.679 62V55.088L93.231 53.616V41.52C93.231 39.1733 92.527 37.36 91.119 36.08C89.711 34.7573 87.5777 34.096 84.719 34.096C82.799 34.096 80.9003 34.3947 79.023 34.992C77.1883 35.5893 75.631 36.4213 74.351 37.488L71.215 31.664C73.0497 30.256 75.2257 29.2107 77.743 28.528C80.303 27.8027 82.9483 27.44 85.679 27.44C90.6283 27.44 94.447 28.6347 97.135 31.024C99.8657 33.3707 101.231 37.0187 101.231 41.968V62H93.679ZM82.927 62.448C80.367 62.448 78.127 62.0213 76.207 61.168C74.287 60.272 72.7937 59.056 71.727 57.52C70.703 55.9413 70.191 54.1707 70.191 52.208C70.191 50.288 70.639 48.56 71.535 47.024C72.4737 45.488 73.9883 44.272 76.079 43.376C78.1697 42.48 80.943 42.032 84.399 42.032H94.319V47.344H84.975C82.2443 47.344 80.4097 47.792 79.471 48.688C78.5323 49.5413 78.063 50.608 78.063 51.888C78.063 53.3387 78.639 54.4907 79.791 55.344C80.943 56.1973 82.543 56.624 84.591 56.624C86.5537 56.624 88.303 56.176 89.839 55.28C91.4177 54.384 92.5483 53.0613 93.231 51.312L94.575 56.112C93.807 58.1173 92.4203 59.6747 90.415 60.784C88.4523 61.8933 85.9563 62.448 82.927 62.448ZM111.498 62V27.824H119.114V37.232L118.218 34.48C119.242 32.176 120.842 30.4267 123.018 29.232C125.237 28.0373 127.989 27.44 131.274 27.44V35.056C130.933 34.9707 130.613 34.928 130.314 34.928C130.015 34.8853 129.717 34.864 129.418 34.864C126.389 34.864 123.978 35.76 122.186 37.552C120.394 39.3013 119.498 41.9253 119.498 45.424V62H111.498ZM138.061 62V27.824H146.061V62H138.061ZM142.093 22.192C140.599 22.192 139.362 21.7227 138.381 20.784C137.442 19.8453 136.973 18.7147 136.973 17.392C136.973 16.0267 137.442 14.896 138.381 14C139.362 13.0613 140.599 12.592 142.093 12.592C143.586 12.592 144.802 13.04 145.741 13.936C146.722 14.7893 147.213 15.8773 147.213 17.2C147.213 18.608 146.743 19.8027 145.805 20.784C144.866 21.7227 143.629 22.192 142.093 22.192ZM177.617 62V55.088L177.169 53.616V41.52C177.169 39.1733 176.465 37.36 175.057 36.08C173.649 34.7573 171.515 34.096 168.657 34.096C166.737 34.096 164.838 34.3947 162.961 34.992C161.126 35.5893 159.569 36.4213 158.289 37.488L155.153 31.664C156.987 30.256 159.163 29.2107 161.681 28.528C164.241 27.8027 166.886 27.44 169.617 27.44C174.566 27.44 178.385 28.6347 181.073 31.024C183.803 33.3707 185.169 37.0187 185.169 41.968V62H177.617ZM166.865 62.448C164.305 62.448 162.065 62.0213 160.145 61.168C158.225 60.272 156.731 59.056 155.665 57.52C154.641 55.9413 154.129 54.1707 154.129 52.208C154.129 50.288 154.577 48.56 155.473 47.024C156.411 45.488 157.926 44.272 160.017 43.376C162.107 42.48 164.881 42.032 168.337 42.032H178.257V47.344H168.913C166.182 47.344 164.347 47.792 163.409 48.688C162.47 49.5413 162.001 50.608 162.001 51.888C162.001 53.3387 162.577 54.4907 163.729 55.344C164.881 56.1973 166.481 56.624 168.529 56.624C170.491 56.624 172.241 56.176 173.777 55.28C175.355 54.384 176.486 53.0613 177.169 51.312L178.513 56.112C177.745 58.1173 176.358 59.6747 174.353 60.784C172.39 61.8933 169.894 62.448 166.865 62.448Z" fill="white"/>
<path d="M227.486 62.256C224.371 62.256 221.555 61.552 219.038 60.144C216.563 58.6933 214.601 56.688 213.15 54.128C211.699 51.568 210.974 48.624 210.974 45.296C210.974 41.9253 211.699 38.9813 213.15 36.464C214.601 33.904 216.563 31.92 219.038 30.512C221.555 29.0613 224.371 28.336 227.486 28.336C230.43 28.336 233.075 29.0187 235.422 30.384C237.811 31.7493 239.689 33.6907 241.054 36.208C242.462 38.7253 243.166 41.7547 243.166 45.296C243.166 48.752 242.483 51.76 241.118 54.32C239.753 56.88 237.875 58.8427 235.486 60.208C233.139 61.5733 230.473 62.256 227.486 62.256ZM227.678 59.376C230.238 59.376 232.521 58.8 234.526 57.648C236.574 56.4533 238.174 54.7893 239.326 52.656C240.521 50.5227 241.118 48.0693 241.118 45.296C241.118 42.48 240.521 40.0267 239.326 37.936C238.174 35.8027 236.574 34.16 234.526 33.008C232.521 31.8133 230.238 31.216 227.678 31.216C225.118 31.216 222.814 31.8133 220.766 33.008C218.761 34.16 217.161 35.8027 215.966 37.936C214.814 40.0267 214.238 42.48 214.238 45.296C214.238 48.0693 214.814 50.5227 215.966 52.656C217.161 54.7893 218.761 56.4533 220.766 57.648C222.814 58.8 225.118 59.376 227.678 59.376ZM241.182 62V51.056L241.758 45.232L241.118 39.408V14.512H244.318V62H241.182ZM271.378 62.256C268.007 62.256 265.02 61.5307 262.418 60.08C259.858 58.6293 257.831 56.624 256.338 54.064C254.887 51.504 254.162 48.5813 254.162 45.296C254.162 41.968 254.844 39.0453 256.21 36.528C257.618 33.968 259.538 31.9627 261.97 30.512C264.402 29.0613 267.132 28.336 270.162 28.336C273.191 28.336 275.9 29.04 278.29 30.448C280.722 31.856 282.62 33.84 283.986 36.4C285.394 38.9173 286.098 41.84 286.098 45.168C286.098 45.296 286.076 45.4453 286.034 45.616C286.034 45.744 286.034 45.8933 286.034 46.064H256.53V43.568H284.306L283.026 44.784C283.068 42.1813 282.514 39.856 281.362 37.808C280.252 35.7173 278.738 34.096 276.818 32.944C274.898 31.7493 272.679 31.152 270.162 31.152C267.687 31.152 265.468 31.7493 263.506 32.944C261.586 34.096 260.071 35.7173 258.962 37.808C257.852 39.856 257.298 42.2027 257.298 44.848V45.424C257.298 48.1547 257.895 50.5867 259.09 52.72C260.327 54.8107 262.012 56.4533 264.146 57.648C266.279 58.8 268.711 59.376 271.442 59.376C273.575 59.376 275.559 58.992 277.394 58.224C279.271 57.456 280.85 56.2827 282.13 54.704L283.986 56.816C282.535 58.608 280.7 59.9733 278.482 60.912C276.306 61.808 273.938 62.256 271.378 62.256ZM313.075 62V23.472C313.075 20.6987 313.864 18.48 315.443 16.816C317.064 15.1093 319.368 14.256 322.355 14.256C323.592 14.256 324.808 14.448 326.003 14.832C327.197 15.1733 328.179 15.7067 328.947 16.432L327.667 18.864C327.027 18.224 326.259 17.7547 325.363 17.456C324.467 17.1573 323.507 17.008 322.483 17.008C320.435 17.008 318.877 17.584 317.811 18.736C316.744 19.8453 316.211 21.5093 316.211 23.728V29.36L316.275 30.896V62H313.075ZM306.931 31.344V28.592H326.899V31.344H306.931ZM353.866 62V54.384L353.738 53.232V40.688C353.738 37.5733 352.884 35.2053 351.178 33.584C349.514 31.9627 347.06 31.152 343.818 31.152C341.514 31.152 339.359 31.5573 337.354 32.368C335.391 33.136 333.706 34.1387 332.298 35.376L330.698 33.072C332.362 31.5787 334.367 30.4267 336.714 29.616C339.06 28.7627 341.514 28.336 344.074 28.336C348.212 28.336 351.391 29.3813 353.61 31.472C355.828 33.5627 356.938 36.6773 356.938 40.816V62H353.866ZM341.834 62.256C339.359 62.256 337.204 61.872 335.37 61.104C333.578 60.2933 332.191 59.1627 331.21 57.712C330.271 56.2613 329.802 54.5973 329.802 52.72C329.802 51.0133 330.186 49.4773 330.954 48.112C331.764 46.704 333.087 45.5733 334.922 44.72C336.756 43.824 339.21 43.376 342.282 43.376H354.57V45.872H342.346C338.89 45.872 336.458 46.512 335.05 47.792C333.684 49.072 333.002 50.672 333.002 52.592C333.002 54.7253 333.812 56.432 335.434 57.712C337.055 58.992 339.338 59.632 342.282 59.632C345.098 59.632 347.466 58.992 349.386 57.712C351.348 56.432 352.799 54.576 353.738 52.144L354.634 54.32C353.738 56.752 352.202 58.6933 350.026 60.144C347.892 61.552 345.162 62.256 341.834 62.256ZM370.122 62V28.592H373.194V37.744L372.874 36.72C373.813 34.032 375.391 31.9627 377.61 30.512C379.829 29.0613 382.602 28.336 385.93 28.336V31.472C385.802 31.472 385.674 31.472 385.546 31.472C385.418 31.4293 385.29 31.408 385.162 31.408C381.45 31.408 378.549 32.5813 376.458 34.928C374.367 37.232 373.322 40.4533 373.322 44.592V62H370.122ZM394.747 62V28.592H397.947V62H394.747ZM396.347 20.464C395.622 20.464 395.003 20.208 394.491 19.696C393.979 19.184 393.723 18.5867 393.723 17.904C393.723 17.1787 393.979 16.56 394.491 16.048C395.003 15.536 395.622 15.28 396.347 15.28C397.115 15.28 397.734 15.536 398.203 16.048C398.715 16.5173 398.971 17.1147 398.971 17.84C398.971 18.5653 398.715 19.184 398.203 19.696C397.734 20.208 397.115 20.464 396.347 20.464ZM432.491 62V54.384L432.363 53.232V40.688C432.363 37.5733 431.509 35.2053 429.803 33.584C428.139 31.9627 425.685 31.152 422.443 31.152C420.139 31.152 417.984 31.5573 415.979 32.368C414.016 33.136 412.331 34.1387 410.923 35.376L409.323 33.072C410.987 31.5787 412.992 30.4267 415.339 29.616C417.685 28.7627 420.139 28.336 422.699 28.336C426.837 28.336 430.016 29.3813 432.235 31.472C434.453 33.5627 435.563 36.6773 435.563 40.816V62H432.491ZM420.459 62.256C417.984 62.256 415.829 61.872 413.995 61.104C412.203 60.2933 410.816 59.1627 409.835 57.712C408.896 56.2613 408.427 54.5973 408.427 52.72C408.427 51.0133 408.811 49.4773 409.579 48.112C410.389 46.704 411.712 45.5733 413.547 44.72C415.381 43.824 417.835 43.376 420.907 43.376H433.195V45.872H420.971C417.515 45.872 415.083 46.512 413.675 47.792C412.309 49.072 411.627 50.672 411.627 52.592C411.627 54.7253 412.437 56.432 414.059 57.712C415.68 58.992 417.963 59.632 420.907 59.632C423.723 59.632 426.091 58.992 428.011 57.712C429.973 56.432 431.424 54.576 432.363 52.144L433.259 54.32C432.363 56.752 430.827 58.6933 428.651 60.144C426.517 61.552 423.787 62.256 420.459 62.256Z" fill="white"/>
<ellipse cx="449.814" cy="57.5588" rx="5.02024" ry="5.04902" fill="#11B0C8"/>
</svg>
