<svg width="397" height="116" viewBox="0 0 397 116" fill="none" xmlns="http://www.w3.org/2000/svg">
<g clip-path="url(#clip0_135_10937)">
<path d="M271.366 99.6035C271.525 97.5301 270.947 95.7083 269.804 93.9847C268.639 92.2296 268.057 90.3335 268.935 88.2428L269.074 87.767C269.589 85.8831 269.353 84.1426 267.953 82.6978C266.902 81.6104 266.614 80.3631 266.922 78.9282C267.328 77.0423 267.195 75.2939 266.052 73.6032C265.063 72.1359 264.892 70.5162 265.678 68.7804C266.342 67.3234 266.776 65.7499 267.197 64.1993C267.524 62.9911 267.527 61.7117 267.068 60.5359C266.696 59.5768 266.793 58.7061 267.024 57.762C267.269 56.7662 267.406 55.738 267.54 54.7197C267.644 53.9359 267.381 53.2429 266.793 52.7051C266.02 52.0003 265.752 51.1225 265.881 50.124C266.035 48.9773 266.258 47.8433 265.656 46.7389C265.549 46.5466 265.611 46.2508 265.628 46.0041C265.777 44.012 265.271 42.1578 264.485 40.3529C264.034 39.3125 263.844 38.2179 263.963 37.0863C264.191 34.8897 264.052 32.6979 263.668 30.5455C263.254 28.2305 262.602 25.962 262.111 23.6593C261.94 22.8628 261.829 22.025 261.878 21.2187C261.98 19.5741 262.178 17.9323 262.399 16.2952C262.667 14.3225 263.152 12.4095 264.007 10.59C264.828 8.82973 265.589 7.03986 266.35 5.25235C266.623 4.60637 266.855 3.93828 267.019 3.25755C267.218 2.43902 267.208 1.61298 266.71 0.868682C266.048 -0.120032 265.175 -0.304824 264.308 0.52358C263.601 1.20628 262.932 1.98572 262.458 2.83861C261.527 4.51516 260.455 6.06812 259.164 7.48604C258.264 8.47475 257.88 9.65339 257.825 10.9995C257.724 13.6154 257.123 16.0662 255.218 18.0456C254.675 18.6103 254.199 19.2464 253.76 19.8971C253.319 20.5431 252.856 21.2112 252.605 21.9385C252.008 23.6518 251.358 25.3777 251.053 27.1577C250.649 29.5268 250.024 31.8201 249.392 34.1328C248.867 36.0533 247.969 37.6312 246.616 39.0171C245.758 39.8949 245.158 40.9353 244.784 42.0839C244.335 43.4596 243.944 44.8503 243.569 46.2485C243.401 46.8846 243.284 47.5428 243.222 48.1959C242.935 51.3219 242.706 54.4535 242.387 57.5721C242.31 58.3116 242.378 59.1329 241.862 59.8034L241.641 59.6115C240.818 58.4846 240.719 57.1804 240.592 55.8489C240.3 52.7276 239.98 49.6138 240.106 46.4704C240.144 45.5211 240.106 44.5695 240.136 43.6203C240.161 42.8436 239.834 42.2668 239.243 41.8032C239.018 41.6283 238.785 41.4656 238.524 41.2729C238.572 40.6885 238.618 40.114 238.664 39.5423C238.77 38.1468 238.579 36.8502 237.672 35.679C237.347 35.2648 237.206 34.609 237.211 34.0664C237.223 32.6663 237.354 31.2634 237.467 29.8652C237.553 28.7063 237.134 27.7646 236.321 26.9685C236.113 26.7687 235.843 26.6061 235.694 26.3719C235.461 26.0071 235.124 25.5854 235.146 25.2059C235.218 23.8523 235.337 22.4889 235.602 21.1626C235.81 20.117 236.288 19.1283 236.589 18.0977C237.129 16.2336 237.694 14.3774 238.12 12.4865C238.339 11.5199 237.855 10.8443 237.037 10.4775C236.254 10.1197 235.599 10.2058 234.972 11.0567C233.893 12.5165 232.885 14.0375 231.968 15.5979C231.563 16.2905 231.397 17.1386 231.216 17.9378C230.916 19.2791 230.594 20.613 229.588 21.6285C228.499 22.7282 227.905 24.0667 227.518 25.5289C227.456 25.7705 227.331 25.9972 227.188 26.3474C226.509 24.6069 226.231 24.4367 224.759 24.7866C224.706 24.5501 224.687 24.3009 224.595 24.0814C224.186 23.0978 223.408 22.945 222.674 23.7311C222.367 24.0569 222.054 24.4312 221.903 24.843C221.335 26.394 220.763 27.9474 220.319 29.5323C219.878 31.1224 219.655 32.7721 219.226 34.3645C218.279 37.8705 217.583 41.4502 216.063 44.7887C215.877 45.1954 215.807 45.6589 215.723 46.1028C215.282 48.492 215.349 50.8686 215.857 53.2429C216.465 56.0681 216.406 58.9083 215.962 61.7489C215.679 63.5853 214.596 65.0028 213.428 66.3615C211.579 68.5088 210.771 70.979 211.002 73.8069C211.113 75.1826 211.406 76.4899 211.963 77.7547C212.931 79.9386 213.287 82.1747 212.412 84.4901C212.266 84.8751 212.159 85.2845 212.11 85.6908C211.978 86.7167 211.938 87.7227 212.407 88.7261C212.673 89.3006 212.791 89.9908 212.796 90.6316C212.813 93.154 212.754 95.6739 212.749 98.1959C212.746 98.642 212.831 99.1009 212.952 99.5324C213.124 100.159 213.49 100.672 214.162 100.826C214.891 100.994 215.337 100.521 215.714 100.011C216.388 99.0961 216.864 98.0849 216.978 96.9481C217.186 94.9044 217.861 93.0162 218.664 91.1445C219.026 90.2921 219.175 89.3128 219.236 88.381C219.355 86.5516 218.951 84.7669 218.569 82.9865C218.475 82.5502 218.406 82.074 218.482 81.6428C218.862 79.5201 219.678 77.5549 221.301 76.1057C222.637 74.905 223.193 73.5487 222.962 71.8184C222.91 71.4066 222.942 70.9825 222.855 70.5806C222.58 69.3356 222.744 68.1348 223.024 66.9068C223.406 65.218 223.837 63.5194 223.978 61.801C224.214 58.9478 224.704 56.1573 225.379 53.3858C225.85 51.4625 225.857 49.5542 225.168 47.6534C224.499 45.8043 224.558 43.9307 225.205 42.0595C225.528 41.1248 225.706 40.1436 226.016 39.2043C226.358 38.1638 226.596 37.0594 227.568 36.0016C227.647 36.601 227.756 36.988 227.739 37.365C227.672 38.6029 227.585 39.838 227.461 41.066C227.305 42.6612 227.647 44.0294 229.07 44.964C229.702 45.3754 230.027 45.9701 230.149 46.6998C230.275 47.4322 230.644 48.1224 231.276 48.4111C232.773 49.0989 233.024 50.3782 233.163 51.7665L233.2 52.1361C233.495 54.6063 233.931 57.0153 235.166 59.2538C235.664 60.1564 235.731 61.3027 235.951 62.3455C236.1 63.0286 236.038 63.7808 236.301 64.4094C236.819 65.6591 236.733 66.8997 236.601 68.1862C236.331 70.9257 237.075 72.5082 239.514 72.9892C240.116 73.1072 240.453 73.4725 240.511 74.0912C240.572 74.7052 240.654 75.3188 240.734 75.9328C240.942 77.5355 241.193 79.1331 242.199 80.4791C242.786 81.2657 243.537 81.7198 244.566 81.4829C245.414 81.2854 246.115 80.425 246.209 79.3775C246.299 78.4306 246.376 77.4739 246.321 76.5298C246.172 73.9558 246.931 71.6459 248.163 69.4268C248.515 68.793 248.793 68.0634 248.892 67.3479C249.07 66.0437 249.132 64.7178 249.172 63.3982C249.244 61.0168 249.675 58.7906 251.601 57.1263L251.852 56.8499C253.582 54.493 254.561 51.9462 253.954 48.9678C253.49 46.68 253.889 44.4511 254.502 42.247C254.621 41.8154 254.799 41.3989 254.953 40.9748C255.163 41.483 255.163 41.9367 255.163 42.39C255.166 43.7905 255.597 44.9814 256.809 45.8173C257.112 46.0266 257.368 46.3128 257.613 46.5936C258.213 47.2865 258.532 48.068 258.27 48.9951C258.027 49.8701 257.781 50.7431 257.513 51.6133C256.993 53.3073 256.232 54.9688 255.982 56.6995C255.627 59.1551 255.749 61.6525 256.711 64.0268C256.906 64.5176 257.105 65.0423 257.137 65.5627C257.201 66.7588 257.236 67.9642 257.159 69.1575C256.894 73.1811 257.997 76.7509 260.612 79.843C261.292 80.6418 261.351 81.4825 261.098 82.4961C260.754 83.8863 260.523 85.3189 260.414 86.7467C260.293 88.2803 260.929 89.4834 262.466 90.0702L262.679 90.2925C262.679 91.0715 262.687 91.8971 262.675 92.7204C262.662 93.8149 263.026 94.7594 263.859 95.4769C264.514 96.0443 265.186 96.6184 265.927 97.0622C266.683 97.5183 266.911 98.1027 266.801 98.9311C266.697 99.7077 266.658 100.492 266.606 101.276C266.564 101.934 266.73 102.513 267.37 102.846C267.962 103.154 268.396 102.797 268.839 102.478L269.079 102.464L269.238 102.637C269.964 103.364 270.433 103.487 271.075 103.122C271.714 102.757 271.848 102.225 271.615 101.298C271.476 100.745 271.324 100.159 271.366 99.6035Z" fill="#11B0C8"/>
<path d="M72.9265 104.372C72.6836 102.841 72.0543 101.46 70.9534 100.311C69.6298 98.9188 68.8215 97.309 68.6977 95.3509C68.554 93.1022 67.2578 91.6203 65.2053 90.8314C64.5308 90.5704 64.0524 90.2178 63.7304 89.6062C63.3461 88.8761 62.9074 88.1665 62.5878 87.4096C62.1813 86.4505 61.4723 85.8049 60.5179 85.5949C59.4047 85.3457 58.914 84.6729 58.6687 83.6842C58.577 83.3217 58.4531 82.9667 58.3983 82.5991C58.0243 80.23 56.7226 78.4942 54.68 77.2958C54.0281 76.9112 53.7034 76.3762 53.3961 75.7128C52.7712 74.3692 52.2011 72.9366 51.2789 71.8125C49.9648 70.2121 48.3117 68.9794 45.9766 69.8966L45.6816 69.8153C45.3993 69.2262 45.1437 68.5703 44.7868 67.9733C43.9142 66.5262 43.3441 66.3982 41.8815 67.2365L41.681 67.2488C41.5544 66.9874 41.4182 66.6987 41.2745 66.4105C40.7739 65.4147 40.3249 64.3861 39.7552 63.4297C39.2442 62.5713 38.6273 61.7927 37.42 61.8491C37.1128 61.8637 36.7928 61.5779 36.2501 61.3244C36.8575 60.9046 37.1719 60.6263 37.534 60.449C38.6618 59.8891 39.5146 59.0753 39.941 57.8919C40.1343 57.3592 40.494 57.0635 40.9772 56.9154C41.5695 56.7354 42.1793 56.5755 42.7942 56.521C44.4501 56.3729 45.5482 55.3917 46.3537 54.0997C47.1842 52.7683 47.7964 51.3089 48.0545 49.7358C48.1859 48.922 48.3296 48.1824 49.1724 47.6873C49.5714 47.4532 49.8195 46.834 49.9656 46.3412C50.1443 45.715 50.2213 45.0366 50.2138 44.3859C50.2014 43.2543 50.4865 42.3078 51.3043 41.4644C52.8018 39.9336 53.2254 38.0398 52.876 35.9613C52.5934 34.2824 52.4151 32.6378 53.0424 30.9589C53.7883 28.9716 53.3123 27.2039 51.6044 25.8653C51.0816 25.4558 50.8879 25.0049 50.9772 24.3763C51.0316 24.0087 51.0689 23.6363 51.086 23.2644C51.1455 21.9898 51.2197 20.7152 51.2273 19.4383C51.2273 19.088 51.103 18.6738 50.8926 18.3951C49.4078 16.435 48.2153 15.836 46.1207 16.5633C45.6891 16.7138 45.2552 16.8792 44.8094 16.9479C44.088 17.066 43.8328 16.8346 43.7558 16.112C43.7014 15.5794 43.6938 15.0372 43.5846 14.5144C43.3663 13.4175 42.7295 12.8849 41.5965 12.8256C41.1848 12.8031 40.7612 12.8233 40.357 12.9022C39.1053 13.1463 38.0294 12.9394 37.0131 12.0809C36.2993 11.4721 35.4168 11.048 34.5716 10.6093C33.1015 9.84489 31.5869 9.16456 30.1267 8.38275C29.2248 7.89471 28.2902 7.63805 27.2759 7.60133C26.78 7.58159 26.2695 7.65069 25.7836 7.56421C24.1725 7.27597 22.8708 7.86035 21.6365 8.81946C20.2609 9.88714 18.8603 10.9272 17.4223 11.9112C15.5334 13.2055 13.4885 13.8538 11.1855 13.1218L10.6995 13.0231C9.76263 12.7297 8.91702 12.9713 8.05712 13.3705C6.67159 14.0165 5.5187 14.9385 4.53454 16.08C3.9569 16.7533 3.36934 17.0095 2.47688 16.6028C1.68368 16.2451 1.22514 16.3931 0.848391 17.0123C-0.0535931 18.4942 -0.636389 20.9423 1.23507 22.7073C1.53758 22.9908 1.8401 23.2747 2.16008 23.538C3.45668 24.6057 3.63215 25.9466 3.15377 27.4629C2.94574 28.131 2.71509 28.8018 2.59122 29.4869C2.08782 32.3097 2.30895 34.9331 4.72827 36.9477C5.23365 37.367 5.66519 37.8922 6.06934 38.4146C6.79307 39.3492 7.33855 40.3426 7.00904 41.6125C6.76091 42.5688 6.65452 43.5599 6.41155 44.5143C6.20551 45.3205 6.20551 46.0475 6.68429 46.7677C6.8554 47.0239 6.97688 47.3912 6.94711 47.6873C6.8681 48.4612 7.03405 49.1589 7.36872 49.8444C7.7284 50.5765 7.75778 51.3042 7.52514 52.1176C7.14322 53.4439 7.28972 54.7358 8.22902 55.8525C8.63039 56.3283 8.99245 56.8313 9.39382 57.3071C9.9913 58.0123 10.2863 58.7594 10.006 59.7063C9.68879 60.7763 9.85473 61.797 10.3407 62.8248C11.3721 65.0115 12.0414 67.3293 12.0513 69.7529C12.0537 71.1266 12.1851 72.5635 11.3574 73.8385C10.6583 74.9113 11.0572 75.9932 11.7711 76.8113C12.7628 77.9505 13.2265 79.289 13.7219 80.6505C13.9549 81.2941 13.9006 81.8418 13.5361 82.4112C12.4428 84.1244 12.3832 85.9637 12.8271 87.8969C13.1395 89.2552 13.7541 90.4634 14.4976 91.6073C15.028 92.4231 15.427 93.2665 15.5759 94.2181C15.7002 95.0267 16.0221 95.7047 16.6669 96.2421C16.8701 96.4123 17.0682 96.6985 17.0905 96.9524C17.2242 98.2981 17.5466 99.6252 17.1575 101.006C16.7609 102.409 17.0881 103.153 18.3748 103.915C19.2374 104.425 19.5546 105.15 19.6043 106.057C19.6416 106.757 19.5943 107.465 19.6293 108.165C19.6987 109.403 20.0779 110.52 21.0696 111.349C21.5182 111.724 22.0017 112.108 22.6362 111.842C23.2829 111.575 23.5461 110.999 23.5584 110.343C23.5755 109.561 23.5385 108.772 23.4865 107.991C23.3972 106.628 23.4468 105.333 24.855 104.564L25.0384 104.398C26.516 102.942 26.6697 101.412 25.6434 99.6027C24.8899 98.2713 24.5453 96.8585 25.2194 95.3426C25.4846 94.7456 25.7057 94.0874 25.7526 93.4418C25.7947 92.8104 25.7375 92.093 25.4628 91.541C24.9296 90.4761 24.2285 89.4897 23.5663 88.4887C22.5278 86.9208 21.9402 85.3212 23.0582 83.5357L23.2118 83.1981C24.2726 81.2728 24.3667 79.3495 23.1673 77.4439C22.8005 76.8615 22.7533 76.3024 23.165 75.7156C23.9308 74.6357 23.7795 73.5558 23.182 72.451C22.8275 71.8002 22.5202 71.1148 22.2721 70.4194C21.7961 69.088 22.2276 68.2789 23.8216 67.7171C24.4536 68.4021 25.1353 69.1788 25.8542 69.9211C26.9226 71.0204 28.2513 71.4445 29.719 71.0283C30.8247 70.7152 31.4789 71.1712 32.0169 71.9799C32.5893 72.843 33.0753 73.7599 33.6628 74.608C34.1313 75.2809 34.6418 75.9442 35.2369 76.5065C35.859 77.1008 36.345 77.0218 36.9671 76.4248C38.1223 75.3062 38.3701 75.286 39.4733 76.4275C40.0783 77.0613 40.7302 77.5122 41.6425 77.4044C42.3242 77.3203 42.7581 77.6038 43.0281 78.1981C43.6057 79.475 44.2254 80.735 44.7558 82.0293C45.4204 83.6565 46.5185 84.1694 48.1025 83.5037C48.3304 83.4078 48.5539 83.2968 48.7865 83.2028C49.6814 82.8431 49.7731 82.8254 50.2864 83.6881C50.9184 84.7507 51.4961 85.8507 52.0265 86.9697C52.7379 88.4619 53.9078 89.4403 55.4871 89.7163C56.4486 89.8865 56.9544 90.3355 57.3411 91.1118C57.542 91.5189 57.7849 91.9086 57.9858 92.3153C58.918 94.1964 59.974 95.9519 62.1527 96.65L62.5692 96.9161C63.6427 97.6557 64.6566 98.4221 64.7285 99.9016C64.8027 101.372 65.4073 102.698 65.958 104.039C66.3347 104.954 66.8826 105.691 67.7703 106.164C68.4916 106.551 68.9823 107.128 69.2698 107.908C69.5449 108.642 69.8772 109.36 70.2265 110.06C70.7148 111.031 71.6021 111.635 72.2246 111.472C72.8717 111.302 73.2136 110.595 73.1814 109.379C73.1691 108.847 72.894 108.255 73.05 107.794C73.4498 106.613 73.1052 105.496 72.9265 104.372ZM35.1063 51.7906C34.8487 51.9533 34.5211 52.02 34.2162 52.0868C33.5394 52.2443 32.8331 52.311 32.1761 52.5282C31.4325 52.775 30.696 53.0854 30.012 53.4699C29.4864 53.7685 28.9782 54.1653 28.5991 54.6261C28.0536 55.2942 27.4117 55.7577 26.5339 56.108C26.2361 55.8592 25.9515 55.5654 25.6168 55.3412C24.1491 54.3572 23.2618 54.2861 22.0895 55.1611C21.7695 55.4004 21.3951 55.5607 20.7631 55.9157C20.8822 55.1366 20.9144 54.6288 21.0458 54.1479C21.1672 53.714 21.415 53.3171 21.5762 52.8931C22.072 51.5912 21.9208 51.0463 20.7258 50.2918C20.2351 49.9838 20.0489 49.6284 20.0616 49.0815C20.0815 48.2555 20.0691 47.4271 20.064 46.5987C20.0592 45.3782 19.5705 44.4661 18.4256 43.9161C17.657 43.5461 17.5903 43.2799 17.7789 42.4318C17.8976 41.9141 17.9968 41.3815 18.0564 40.8516C18.2672 39.0665 17.3699 37.8238 16.0511 36.766C15.8256 36.586 15.595 36.2432 15.6025 35.9795C15.6323 34.7148 15.2083 33.4501 15.7069 32.1802C16.0217 31.3739 15.5084 30.7279 14.9582 30.2075C14.0955 29.3988 13.9939 28.4176 14.207 27.3575C14.3829 26.4651 14.7946 26.1962 15.6946 26.3194C15.9399 26.3565 16.198 26.3612 16.433 26.4303C18.476 27.0443 20.0846 26.2728 21.5075 24.8821C21.7429 24.6503 21.9906 24.4257 22.2213 24.1891C23.0022 23.3852 23.9665 23.1017 25.0575 23.2154C25.7613 23.2869 26.4553 23.4543 27.1572 23.4914C28.0643 23.5408 28.9719 23.5064 29.983 23.5064C31.966 27.0886 32.8164 27.5178 35.8705 26.413C36.6042 27.1502 37.4296 27.8186 36.8916 29.1201C36.6463 29.7195 36.8694 30.358 37.2981 30.8582C37.8881 31.5512 38.478 32.2465 39.1251 32.885C39.5638 33.3213 40.0994 33.6617 40.6028 34.0538C40.2804 34.5837 40.1268 34.8648 39.9457 35.1238C39.2097 36.1817 39.0632 36.9212 39.864 37.8333C40.9696 39.0882 40.3896 40.4097 40.3249 41.729L40.1689 42.0543C39.3808 42.9372 38.5773 43.8122 37.7916 44.6975C37.0135 45.5729 36.7805 46.6674 36.6018 47.7694C36.4978 48.4202 36.4609 49.0839 36.3565 49.737C36.2191 50.5824 35.8598 51.3219 35.1063 51.7906Z" fill="#11B0C8"/>
<path d="M396.181 50.9646C395.598 50.6839 395.041 50.8165 394.495 51.0511C393.09 51.6552 391.664 52.2246 390.298 52.9077C389.416 53.3463 388.484 53.8348 387.82 54.5301C385.74 56.7145 382.746 57.5081 380.515 59.4389L380.291 59.5471C378.293 60.3483 376.332 61.2679 374.282 61.9115C372.495 62.4714 370.658 62.8086 369.454 64.5101C369.424 64.0666 369.463 63.7065 369.587 63.376C369.954 62.4023 369.786 61.5048 369.253 60.6563C368.859 60.0253 368.41 59.4263 368.019 58.7926C367.83 58.4893 367.597 58.1343 367.602 57.8086C367.622 56.9976 367.26 56.4084 366.804 55.7869C366.511 55.3802 366.271 54.8306 366.256 54.3398C366.179 51.7831 366.191 49.226 366.142 46.6721C366.117 45.3853 365.559 44.3863 364.424 43.7013C364.094 43.5015 363.725 43.1564 363.628 42.8113C362.939 40.3134 361.427 38.0722 361.313 35.3975C361.298 35.114 361.214 34.823 361.112 34.5568C360.294 32.4365 359.508 30.3039 358.618 28.2159C358.252 27.3527 357.681 26.5614 357.123 25.7946C356.91 25.5084 356.385 25.166 356.142 25.2521C355.785 25.3729 355.388 25.8266 355.316 26.1966C355.188 26.8698 355.264 27.5845 355.291 28.285C355.361 30.4227 355.448 32.5652 355.531 34.7396C354.178 35.0405 353.851 35.938 353.927 37.0128C354.032 38.4505 354.2 39.8803 354.364 41.31C354.458 42.1285 354.669 42.9376 354.694 43.7557C354.739 45.3656 354.711 46.9805 354.684 48.5903C354.654 50.3952 354.949 52.1409 355.73 53.7681C356.38 55.1335 356.783 56.5439 356.851 58.0479C356.888 58.8297 356.93 59.6162 356.905 60.398C356.883 61.172 357.165 61.7808 357.763 62.2325C358.179 62.5457 358.655 62.7794 359.347 63.194C358.807 65.1438 358.308 67.1437 357.693 69.1109C357.106 70.9995 356.31 72.8115 356.853 74.8927C357.101 75.8321 356.722 76.2171 355.779 76.5397C355.192 76.7422 354.578 76.8729 353.998 77.0968C352.493 77.6808 350.961 78.2162 349.513 78.9266C348.266 79.5406 348.194 80.3267 349.077 81.409L349.267 81.6827L349.124 81.9144C348.843 82.087 348.556 82.252 348.261 82.4025C346.38 83.3714 344.86 84.7669 343.519 86.3644C342.609 87.4491 342.594 88.1792 343.333 89.286C344.193 90.5704 344.173 90.9996 343.036 92.0223C341.653 93.27 340.234 94.481 338.811 95.6814C338.167 96.2263 337.621 96.8107 337.324 97.6245C337.225 97.8977 336.985 98.2258 336.729 98.3175C335.222 98.862 334.28 99.9739 333.546 101.313C332.894 102.506 332.022 103.477 330.802 104.106C330.143 104.444 329.424 104.673 328.777 105.034C325.884 106.643 323.509 108.911 321.144 111.17C320.601 111.688 320.281 112.469 319.966 113.177C319.637 113.909 319.479 114.693 320.241 115.322C320.884 115.849 321.649 115.852 322.559 115.319L323.067 114.965C324.753 113.557 326.411 112.12 328.124 110.746C328.759 110.235 329.473 109.737 330.233 109.486C331.721 108.993 333.26 108.641 334.797 108.298C336.458 107.923 337.903 107.247 339.108 105.99C340.709 104.313 342.405 102.726 344.068 101.106C344.333 100.85 344.619 100.591 344.933 100.403C346.009 99.7575 346.795 98.8402 347.246 97.7133C348.044 95.7114 349.373 94.0842 350.749 92.4791C351.366 91.7566 352.05 91.0837 352.625 90.3264C352.99 89.8482 353.324 89.2891 353.468 88.7114C353.924 86.9263 354.95 85.6201 356.477 84.6239C358.594 83.2384 360.671 81.8058 362.779 80.4033C363.7 79.7917 364.375 78.9905 364.876 78.0042C365.19 77.3855 365.592 76.794 366.039 76.2589C367.32 74.7178 368.963 73.7662 370.905 73.1988C374.018 72.2891 376.231 70.2528 377.632 67.3656C377.999 66.6115 378.557 66.1009 379.231 65.6919C379.687 65.4107 380.185 65.1837 380.688 64.9965C382.151 64.4488 383.396 63.5837 384.565 62.5654C385.25 61.9688 385.974 61.3797 386.77 60.9579C389.179 59.6909 391.306 58.0487 393.276 56.1996C394.425 55.1248 395.52 53.9884 396.588 52.8366C397.274 52.1037 397.078 51.3962 396.181 50.9646Z" fill="#11B0C8"/>
<path d="M193.713 73.2774C193.021 71.6305 192.406 69.9808 192.518 68.1392C192.595 66.8693 192.486 65.59 192.533 64.3178C192.57 63.2896 192.61 62.244 192.84 61.2482C193.249 59.4828 193.787 57.7423 194.301 56.0013C194.541 55.1903 194.489 54.4211 193.958 53.7704C193.205 52.8409 193.123 51.8005 193.378 50.7257C193.696 49.4041 194.122 48.1051 194.474 46.7906C194.601 46.3199 194.744 45.8244 194.72 45.3458C194.682 44.5301 194.358 43.7751 193.545 43.4426C192.677 43.0849 191.901 43.4177 191.306 44.0811C190.897 44.5376 190.471 45.0378 190.25 45.5977C189.858 46.5888 189.578 47.6316 189.32 48.6697C188.817 50.7036 188.361 52.7525 187.883 54.7915L187.717 55.2574C186.74 56.7563 186.401 58.4427 186.172 60.1761C186.056 61.0756 185.577 61.6679 184.727 62.1682C183.498 62.8959 182.352 63.8202 181.329 64.8184C180.357 65.7633 179.579 66.9044 178.721 67.9623C178.746 67.2401 178.706 66.5072 178.833 65.8075C179.274 63.3764 179.785 60.9552 180.258 58.5245C180.493 57.3115 180.749 56.0933 180.903 54.8681C180.979 54.2296 180.97 53.5296 180.786 52.9207C180.558 52.1685 180.097 51.4708 179.167 51.4143C178.282 51.3551 177.678 51.8356 177.251 52.5634C177.107 52.8125 176.981 53.0763 176.871 53.3424C175.781 56.0325 174.697 58.7247 173.537 61.5972C173.151 59.8417 172.429 58.5667 170.449 59.0184C169.755 57.8718 169.584 56.6809 169.348 55.5149C169.16 54.5901 168.716 53.821 168.069 53.1481C167.569 52.6277 166.934 52.6277 166.334 52.8473C165.722 53.0743 165.31 53.5106 165.31 54.2502C165.31 54.8642 165.214 55.4778 165.169 56.0941C165.094 57.1172 164.97 58.143 164.965 59.1661C164.963 60.2362 165.027 61.3137 165.151 62.3786C165.337 63.9715 164.358 65.017 163.52 66.2845C163.106 65.4459 162.692 64.7707 162.429 64.0382C162.251 63.5478 162.33 62.9737 162.216 62.4533C162.035 61.6493 161.762 60.8675 161.579 60.064C161.371 59.1444 161.202 58.2149 161.043 57.2901C160.967 56.8416 160.989 56.3808 160.907 55.9366C160.511 53.7917 159.893 51.6864 159.886 49.4748C159.883 48.7842 159.784 48.0719 159.606 47.4038C159.402 46.652 158.84 46.2548 158.264 46.3855C157.528 46.5556 156.79 46.802 156.393 47.5045C155.992 48.2196 155.617 48.9615 155.335 49.7307C155.037 50.5421 154.861 51.3974 154.638 52.2356C154.485 52.8224 154.155 53.1849 153.5 53.1529C152.303 53.0988 151.701 53.8454 151.274 54.8045C150.975 55.4853 150.762 56.2051 150.414 56.8609C149.499 58.6038 149.269 60.3767 150.025 62.2333C150.283 62.8667 150.342 63.5127 150.102 64.1638C149.276 66.4046 148.88 68.8061 147.541 70.8601C147.276 71.2668 147.043 71.7596 147.004 72.2334C146.934 73.0346 146.746 74.0284 147.115 74.6298C147.782 75.6975 147.909 76.7576 147.876 77.9213C147.866 78.1653 147.901 78.4216 147.958 78.6585C148.152 79.4178 148.752 79.9599 149.408 79.9947C150.132 80.029 150.578 79.6594 150.848 78.7272C151.049 78.0468 151.29 77.4182 151.823 76.9006C152.443 76.2937 152.574 75.4949 152.269 74.7135C152.024 74.0726 152.209 73.5968 152.564 73.1084C152.832 72.7412 153.151 72.3988 153.362 72.0044C153.566 71.6174 153.781 71.1756 153.779 70.759C153.766 69.3687 154.517 68.3776 155.325 67.3001C155.608 67.5145 155.777 67.7194 155.992 67.7956C156.981 68.1332 157.333 68.9494 157.609 69.8295C157.998 71.0919 158.298 72.3866 158.784 73.6091C159.448 75.2931 160.246 76.9231 161 78.5748L161.307 78.9613C161.719 79.3953 162.202 79.5133 162.78 79.3187C163.541 79.0695 163.997 78.5542 164.002 77.7752C164.007 76.1286 163.95 74.4789 163.905 72.83C163.88 71.9076 163.818 70.9829 163.769 69.918C164.644 70.3819 164.988 70.9095 164.914 71.7031C164.879 72.0707 164.944 72.4525 164.887 72.815C164.661 74.2397 165.593 75.0215 166.53 75.7934C166.89 76.0868 167.336 76.0919 167.678 75.776C168.566 74.9528 169.436 74.1094 169.265 72.7214C169.218 72.3617 169.208 71.9696 169.297 71.6218C169.642 70.288 169.515 69.0059 168.992 67.7483C168.818 67.3341 168.742 66.9372 169.002 66.4318C169.607 66.9795 170.236 67.366 170.606 67.9259C171.476 69.2278 172.244 70.5987 173.003 71.9692C173.603 73.0515 174.111 74.1808 174.694 75.273C174.998 75.8424 175.45 76.2933 176.168 76.227C176.897 76.1579 177.386 75.7685 177.589 75.0337C177.715 74.5729 177.901 74.1291 178.085 73.6091L178.246 73.7864L178.295 74.1512C178.397 75.8376 179.317 76.8757 180.871 77.4455C181.414 77.6425 181.944 77.8794 182.445 78.1582C184.478 79.2894 186.78 78.8677 188.231 77.0755C188.459 76.7948 188.675 76.5037 188.997 76.0872C189.133 76.7134 189.242 77.1892 189.334 77.665C189.572 78.8413 190.15 79.8296 191.012 80.6458C191.826 81.4149 192.933 81.4718 193.866 80.8432C194.686 80.2884 195.12 79.5733 195.033 78.5455C194.875 76.7118 194.419 74.9662 193.713 73.2774ZM154.1 62.2369C154.822 60.3262 155.501 58.5363 156.177 56.7437L156.5 56.825C156.5 57.7667 156.364 58.7333 156.537 59.6431C156.701 60.481 157.199 61.258 157.623 62.2365L154.1 62.2369ZM186.529 71.5811C186.11 71.9262 185.795 72.3973 185.399 72.7771C184.719 73.4326 183.869 73.3165 183.735 72.4514C183.609 71.6502 183.827 70.7847 183.961 69.9586C184.092 69.1496 184.429 68.5703 185.327 68.213C186.128 67.8876 186.76 67.1504 187.684 66.4302C187.893 68.4231 188.219 70.1829 186.529 71.5811Z" fill="#11B0C8"/>
<path d="M135.038 35.1313C134.147 35.2794 133.216 35.3532 132.39 35.6837C131.399 36.0782 130.415 36.6034 129.572 37.2541C127.05 39.2019 124.587 41.2283 122.12 43.2476C121.508 43.7506 120.975 44.3693 120.09 44.2856C119.326 44.2142 118.709 44.5127 118.144 44.9636C117.236 45.6834 116.359 46.4479 115.442 47.1578C115.02 47.4836 114.564 47.7892 114.076 48.0012C113.256 48.3613 112.398 48.6397 111.545 48.9552C110.973 47.9519 110.925 46.9039 111.486 45.8169C111.714 45.3782 111.907 44.9024 111.987 44.4215C112.222 43.0063 112.542 41.5959 111.709 40.2103C111.459 39.7961 111.543 39.1774 111.498 38.6475C111.438 37.9522 111.595 37.1581 111.314 36.5765C110.843 35.6075 111.017 34.7618 111.327 33.8571C111.445 33.5045 111.575 33.1543 111.671 32.797C112.1 31.2215 112.239 29.6239 111.912 28.0141C111.552 26.229 110.008 25.6718 108.54 26.779C108.275 26.9764 108.012 27.1735 107.772 27.3535C106.299 26.9835 106.016 27.023 105.37 27.9793C105.08 28.4086 104.866 28.946 104.804 29.4565C104.723 30.1886 104.834 30.9408 104.819 31.6851C104.777 33.993 104.978 36.3475 104.588 38.5958C104.083 41.5098 103.418 44.4242 102.328 47.2127C102.001 48.0482 101.902 48.9729 101.698 49.8554C101.507 50.6961 101.368 51.5517 101.116 52.373C100.721 53.6697 100.216 54.9345 99.8241 56.2363C99.6879 56.6951 99.6803 57.225 99.7399 57.7087C99.8391 58.5071 100.318 59.0792 101.09 59.3355C101.787 59.5673 102.295 59.2076 102.719 58.7021C103.22 58.098 103.706 57.4817 104.219 56.8827C104.44 56.626 104.702 56.4065 104.947 56.17L105.242 56.335C105.069 57.0351 104.883 57.7379 104.722 58.4459C104.6 58.9635 104.437 59.4887 104.429 60.0115C104.404 61.9344 104.132 63.7665 103.098 65.4601C102.667 66.1704 102.421 67.1366 103.155 67.7577C103.956 68.4385 103.862 69.1804 103.715 69.9942C103.257 72.5556 102.791 75.1123 102.305 77.6666C102.221 78.1104 102.084 78.5542 101.891 78.9609C101.222 80.3591 100.994 81.8603 100.657 83.3517C100.297 84.9544 101.046 85.9704 102 86.9788C102.578 87.5928 103.158 87.6568 103.74 87.0574C104.305 86.4782 104.89 85.7978 105.128 85.0555C105.619 83.5171 106.147 82.0084 106.841 80.5514C107.015 80.1814 107.111 79.7676 107.198 79.368C107.537 77.7929 107.857 76.2147 108.187 74.6389C108.497 73.1475 108.809 71.6581 109.163 69.9744C110.487 70.5908 111.127 69.7281 111.816 68.9095C111.969 68.7224 112.262 68.6509 112.559 68.4902C112.837 69.2246 112.978 69.8978 113.33 70.4356C113.683 70.9703 114.253 71.3671 114.716 71.8334L115.001 72.2374C116.047 74.1631 117.205 76.0619 117.358 78.3153C117.455 79.7155 118.157 80.7168 119.195 81.5452C120.425 82.5241 121.122 83.8453 121.429 85.3098C121.855 87.3168 122.872 88.9957 124.081 90.5688C124.619 91.2685 124.874 91.9761 124.968 92.8195C125.045 93.5097 125.107 94.2548 125.415 94.8558C125.93 95.8646 126.325 96.8628 126.409 98.0067C126.468 98.8426 127.133 99.3405 127.921 99.3528C128.798 99.3626 129.227 98.9998 129.441 98.0509C129.478 97.8934 129.483 97.7256 129.51 97.4792C130.757 97.4989 131.374 97.1708 131.533 96.2192C131.751 94.9174 131.892 93.5958 131.379 92.3066C131.134 91.6926 130.933 91.0616 130.725 90.433C129.505 86.7443 128.333 83.054 128.13 79.1189C128.077 78.1894 127.572 77.2129 127.054 76.3967C126.174 75.0163 125.509 73.6185 125.247 71.974C124.89 69.7498 123.975 68.9684 121.746 68.5988C120.909 68.4582 120.15 68.2015 119.622 67.4569C118.425 65.7685 117.193 64.1041 115.983 62.43C115.812 62.1931 115.681 61.9344 115.532 61.6853C115.128 61.0196 114.751 60.3365 114.32 59.6905C113.447 58.3764 113.931 56.8305 115.428 56.2584C116.36 55.9058 117.297 55.5757 118.227 55.2207C120.874 54.2123 122.711 52.5014 123.398 49.6489C123.799 47.9949 124.659 46.5916 126.394 45.9409C126.744 45.8102 127.054 45.5835 127.393 45.4307C129.126 44.6343 130.373 43.3522 131.183 41.6484C131.498 40.9902 132.011 40.5637 132.562 40.1002C133.732 39.1166 134.81 38.0244 135.896 36.9445C136.223 36.6215 136.434 36.2022 136.171 35.7094C135.928 35.2494 135.533 35.0472 135.038 35.1313Z" fill="#11B0C8"/>
<path d="M320.736 88.79C321.148 88.223 321.281 87.5573 321.08 86.9018C320.756 85.8413 320.392 84.7866 319.958 83.7631C319.246 82.104 318.84 80.457 319.132 78.5957C319.591 75.6667 318.939 72.8829 317.144 70.5012C316.375 69.4832 316.095 68.519 316.264 67.3084C316.371 66.5392 316.363 65.7479 315.907 65.0257C314.866 63.3812 313.867 61.7145 312.067 60.721C311.437 60.3759 311.46 59.6336 312.08 59.2222C312.459 58.973 312.91 58.8423 313.309 58.6204C314.03 58.2236 314.789 57.8635 315.438 57.3656C316.247 56.7441 317.105 56.3078 318.11 56.1178C318.499 56.0436 318.874 55.8391 319.231 55.6472C320.446 54.9964 321.241 53.9532 321.936 52.8019C322.34 52.1314 322.486 51.4285 322.401 50.6665C322.347 50.1737 322.34 49.6655 322.203 49.1949C322.01 48.5343 321.871 47.7623 321.432 47.2889C320.604 46.389 320.071 45.3312 319.417 44.3378C319.02 43.7289 318.874 43.2578 319.304 42.555C319.936 41.5244 319.688 40.6048 318.805 39.7764C317.828 38.869 316.71 38.4596 315.377 38.7604C314.264 39.0092 313.233 38.7482 312.248 38.2503C310.704 37.4661 309.712 37.5427 308.577 38.8149C307.424 40.1093 306.408 41.5272 305.337 42.893C305.168 43.107 305.015 43.334 304.819 43.6053C304.172 43.0134 304.224 42.3011 304.14 41.6208C303.951 40.1069 303.798 38.5855 303.493 37.0965C303.312 36.2117 302.712 35.8267 302.015 35.8215C301.254 35.8121 300.55 36.3542 300.319 37.2075C300.226 37.5475 300.265 37.9273 300.253 38.2898C300.213 39.3575 300.238 40.4299 300.126 41.4924C299.916 43.5413 299.465 45.578 299.413 47.6293C299.358 49.8803 299.026 52.0572 298.545 54.2443C298.384 54.9862 298.468 55.7925 298.517 56.5664C298.58 57.5626 299.177 58.211 300.037 58.6816C301.108 59.2636 301.363 59.9862 300.905 61.142C300.649 61.7954 300.298 62.4094 300.042 63.0653C299.604 64.1898 299.531 65.3479 300.139 66.4231C300.795 67.5895 300.816 68.7085 300.446 69.9859C300.156 70.9916 300.037 72.1232 300.173 73.1558C300.349 74.4876 300.361 75.7843 300.2 77.0984C300.133 77.6307 300.069 78.1807 300.138 78.7031C300.196 79.1197 300.369 79.5955 300.652 79.8987C301.71 81.0327 303.406 80.7638 304.008 79.2922C304.355 78.437 304.496 77.4506 304.511 76.5235C304.536 75.0858 304.828 73.7718 305.421 72.4553C305.853 71.4986 306.008 70.404 306.209 69.3585C306.328 68.7275 306.294 68.0716 306.32 67.6057C306.615 67.8229 306.982 68.0744 307.337 68.3453C309.018 69.6246 310.23 71.2838 311.264 73.0962C311.651 73.7745 312.102 74.4525 312.657 74.9922C313.847 76.1464 314.301 77.5043 314.221 79.1268C314.184 79.9011 314.189 80.7421 314.457 81.445C314.973 82.808 315.32 84.1935 315.597 85.6186C315.855 86.9228 316.37 88.1559 317.382 89.0972C318.445 90.0871 319.895 89.9513 320.736 88.79ZM311.085 52.912C310.763 53.5086 310.24 53.9947 309.759 54.5815C309.467 54.3769 309.204 54.2857 309.097 54.1033C308.616 53.28 308.044 52.5574 307.293 51.9434C307.018 51.7192 307.012 51.1743 306.859 50.6957C308.15 50.3976 308.864 49.7169 309.3 48.6373C310.042 46.8155 310.456 46.6279 312.939 46.8621C311.115 48.0873 311.127 49.5494 311.519 51.1889C311.644 51.7093 311.361 52.3971 311.085 52.912Z" fill="#11B0C8"/>
<path d="M321.103 59.0935C320.151 59.3422 319.752 60.0008 319.94 60.9426C320.158 62.0371 320.825 62.6562 321.938 62.5575C322.91 62.4714 323.7 62.8165 324.559 63.1395C325.85 63.6276 326.837 64.8307 328.45 64.6364C328.349 64.9543 328.324 65.1687 328.223 65.3361C327.573 66.4381 327.332 67.6191 327.293 68.8886C327.273 69.4659 326.988 70.0799 326.683 70.5952C326.274 71.2905 326.143 71.9854 326.353 72.7301C326.519 73.324 326.71 73.9281 327.013 74.4608C327.372 75.0941 327.392 75.6122 327.082 76.2972C326.42 77.7768 326.242 79.3155 327.062 80.8365C327.193 81.0829 327.297 81.3885 327.286 81.6598C327.194 83.4299 327.338 85.2715 326.889 86.9484C326.262 89.2808 326.207 91.5963 326.262 93.9456C326.287 95.0208 326.509 96.0956 327.184 96.9829C327.831 97.831 328.637 97.7595 329.175 96.8447C329.299 96.635 329.365 96.389 329.44 96.1517C329.804 94.9734 330.163 93.7924 330.513 92.6043C330.699 91.9729 330.937 91.3447 331.016 90.6984C331.349 87.9174 331.666 85.1313 331.921 82.3429C332.062 80.7946 332.31 79.3155 333.245 78.0184C333.455 77.7254 333.644 77.3555 333.671 77.0076C333.761 75.8191 333.927 74.6136 333.475 73.4496C333.267 72.9173 333.292 72.4091 333.577 71.9065C334.43 70.3954 334.511 68.7776 334.303 67.1011C334.207 66.3367 334.219 65.5552 334.181 64.7837L334.484 64.5642C334.916 64.764 335.429 64.8721 335.764 65.1782C337.189 66.4824 338.924 66.6158 340.662 66.3493C341.624 66.1992 342.345 66.3469 343.081 66.8993C344.033 67.6164 345.126 67.9868 346.324 68.0333C348.007 68.0922 348.649 67.5181 348.726 65.8984C349.065 65.6544 349.425 65.4399 349.737 65.171C350.592 64.4287 350.672 63.5119 349.871 62.6953C349.48 62.2934 348.967 61.9482 348.441 61.7512C347.749 61.4922 347.001 61.3512 346.264 61.2553C345.737 61.1866 345.34 61.0089 344.99 60.6022C344.309 59.801 343.399 59.4362 342.351 59.4188C341.565 59.4066 340.776 59.416 339.973 59.416C338.915 57.9665 338.59 57.8631 336.619 58.1245C335.774 58.2327 334.907 58.4451 333.919 58.0159C334.121 57.3798 334.252 56.7314 334.524 56.1542C335.343 54.4188 335.895 52.6013 336.237 50.7328C336.61 48.6989 337.006 46.6848 337.972 44.8254L338.047 44.5889C338.263 43.1615 338.305 41.7882 337.073 40.7106C336.091 39.855 336.069 39.6307 336.721 38.5113C337.388 37.3674 338.114 36.2555 338.719 35.0816C339.071 34.3989 339.375 33.6368 339.455 32.885C339.608 31.3739 338.567 30.5084 337.04 30.75C335.674 30.9668 334.856 31.8398 334.313 33.0406C333.925 33.901 333.503 34.7468 333.089 35.602C332.028 37.7915 330.91 39.9537 330.597 42.4267C330.486 43.3119 330.144 44.1723 329.844 45.0252C329.381 46.359 329.001 47.7102 329.026 49.1329C329.041 50.1042 328.828 51.0068 328.394 51.8795C327.809 53.0629 327.653 54.296 327.916 55.6148C328.211 57.0943 327.749 57.6195 326.267 57.6266C325.459 57.6289 324.684 57.7028 324.039 58.2429C323.471 58.7187 322.812 58.896 322.088 58.9383C321.757 58.9576 321.422 59.0097 321.103 59.0935Z" fill="#11B0C8"/>
<path d="M95.5785 69.4998C94.0938 70.5624 93.1243 70.5726 91.6197 69.5271C91.1758 69.2191 90.757 68.8764 90.3084 68.5802C89.5227 68.0578 88.6997 67.8849 87.8938 68.536C87.4055 68.9281 86.9097 68.9182 86.3888 68.6521C85.5138 68.2008 84.6956 68.3737 83.9151 68.8665C83.318 69.2388 82.7626 69.6826 82.1552 70.0329C81.3175 70.5111 80.5414 70.07 80.5291 69.1133C80.5239 68.7923 80.5886 68.4472 80.7196 68.1542C80.9872 67.5528 81.3048 66.9732 81.6296 66.401C82.0385 65.6859 82.5565 65.0182 82.8841 64.2684C83.6352 62.5429 83.3601 61.69 81.8455 60.691C81.6744 60.5777 81.5009 60.4691 81.2254 60.2914C81.441 58.6939 82.4724 57.7545 83.5629 56.8448C85.0255 55.6266 86.5027 54.4235 87.9109 53.1438C88.6993 52.4263 89.2222 51.5292 88.6719 50.4098C89.4576 49.9167 90.2484 49.7291 91.0988 49.7366C91.8055 49.7417 92.5121 49.7441 93.2184 49.7169C95.0033 49.6478 96.5599 49.0835 97.6556 47.5993C98.1193 46.9679 98.3345 46.2481 97.9435 45.5057C97.5866 44.823 96.9716 44.5123 96.1935 44.5466C94.8274 44.6055 93.4594 44.6256 92.0984 44.7464C91.4811 44.8029 90.9829 44.808 90.5442 44.2829C90.0634 43.7084 89.3941 43.5184 88.6378 43.5654C86.7612 43.6863 85.0656 44.3125 83.6304 45.5109C83.187 45.8809 82.7479 46.4846 82.676 47.0295C82.5002 48.4052 81.7415 49.0464 80.4652 49.2754L79.8724 49.4578C77.3888 50.1654 76.5682 51.1687 76.2284 53.6836C76.0894 54.7339 75.9481 55.8655 75.4626 56.7729C74.7682 58.055 74.4042 59.3493 74.3248 60.7716C74.2751 61.7113 73.9083 62.5224 73.264 63.2221C72.8154 63.7077 72.3072 64.1788 72.0098 64.7537C71.618 65.5055 71.281 66.3315 71.1444 67.1647C70.9709 68.2027 71.6525 68.8803 72.7038 68.9593C72.8924 68.9739 73.0806 68.9616 73.3878 68.9616C73.1175 69.4232 72.8475 69.7482 72.7185 70.1257C72.468 70.8577 72.1754 71.6076 72.1111 72.3641C72.0094 73.5475 72.5744 74.0999 73.7868 74.1935C74.3664 74.2404 74.9492 74.2136 75.5316 74.2258C76.7417 74.2555 77.1208 74.6523 76.8854 75.8305C76.6722 76.918 76.8902 77.8545 77.7953 78.4709C78.6306 79.0458 78.8017 79.7953 78.8216 80.7003C78.8339 81.2748 78.8934 81.8615 79.0542 82.4116C79.1757 82.8254 79.4286 83.24 79.7259 83.5602C80.2365 84.1173 80.9503 84.1785 81.4981 83.6735C81.9714 83.2325 82.393 82.6947 82.703 82.1277C83.1763 81.2598 83.4915 80.303 83.9548 79.4304C84.3216 78.7453 84.7504 78.0741 85.2534 77.4854C85.6921 76.9697 86.2399 76.7332 87.0208 77.0265C87.4968 77.2062 88.1737 77.0881 88.6819 76.8958C89.2893 76.6668 89.8669 76.2795 90.3524 75.8455C91.1976 75.0839 92.0976 74.8746 93.2156 75.0594C95.7814 75.4834 98.1412 73.797 98.5525 71.2478C98.639 70.7227 98.5275 70.0617 98.2575 69.6108C97.6858 68.6473 96.756 68.6568 95.5785 69.4998Z" fill="#11B0C8"/>
<path d="M294.158 62.7174C293.248 61.6253 293.024 60.5801 293.637 59.3075C294.026 58.4893 294.427 57.6582 294.668 56.7903C295.266 54.66 295.221 52.5594 294.145 50.5453C293.92 50.1235 293.813 49.613 293.763 49.1325C293.649 48.1094 293.297 47.2585 292.534 46.5118C291.185 45.1902 289.733 44.0882 287.92 43.4545C285.427 42.5866 283.112 42.8752 281.183 44.6426C279.943 45.7794 278.987 47.2166 277.883 48.5011C277.541 48.8979 277.169 49.305 276.733 49.581C274.802 50.8015 273.298 52.3324 272.92 54.6798C272.697 56.0531 272.214 57.2436 271.279 58.3409C270.079 59.7509 269.983 61.8708 271.014 63.1857C272.375 64.9235 272.62 66.8417 272.343 68.9225C272.234 69.7387 272.182 70.562 272.087 71.5562C272.194 72.2954 272.226 73.2154 272.477 74.073C272.766 75.0688 273.565 75.5916 274.45 75.3674C275.483 75.1008 276.202 75.5766 276.983 76.0627C277.605 76.452 278.25 76.8169 278.924 77.1079C279.321 77.2808 279.601 77.4628 279.809 77.8699C280.476 79.169 281.294 79.603 282.766 79.3198C283.897 79.1003 284.977 78.6691 286.167 78.8906C286.43 78.94 286.767 78.8389 287.005 78.6987C288.214 77.9856 289.598 77.4309 290.56 76.467C292.275 74.7486 293.842 72.8506 295.265 70.8783C296.115 69.6996 296.742 68.3089 296.346 66.6916C295.969 65.156 295.124 63.8838 294.158 62.7174ZM285.082 66.9135C285.697 68.1783 285.657 68.1984 285.533 69.443C284.767 69.5172 283.962 69.5938 283.245 69.6578C282.648 68.7358 282.12 67.9097 281.582 67.0912C281.126 66.4058 280.561 65.868 279.668 65.9102C279.014 65.9398 278.788 65.5552 278.682 65.023C278.568 64.4579 278.474 63.8862 278.357 63.3215C278.028 61.7358 278.402 60.3479 279.622 59.2731C280.814 58.2224 281.292 57.0169 281.022 55.4193C280.809 54.157 281.706 53.4048 282.784 52.8796C282.598 53.6737 282.395 54.465 282.239 55.2638C281.916 56.8862 282.596 58.0743 283.913 58.9671C284.222 59.1764 284.562 59.3371 284.869 59.5491C285.66 60.0912 285.821 60.5501 285.519 61.4598C285.377 61.889 285.175 62.3005 285.001 62.7222C284.423 64.1306 284.398 65.5134 285.082 66.9135Z" fill="#11B0C8"/>
<path d="M65.9461 55.8711C65.8988 54.3177 66.1668 52.8338 66.7194 51.3863C67.1287 50.3162 67.3415 49.1846 66.8211 48.1272C66.243 46.9533 66.1096 45.7802 66.3403 44.5277V44.0321C66.2756 43.0829 65.8246 42.6194 64.8654 42.5305C64.0103 42.4567 63.2242 42.6486 62.5005 43.1295C62.2476 43.2997 61.9133 43.46 61.6255 43.4426C60.1161 43.3514 59.5532 43.768 59.7441 45.2151C59.9474 46.7831 59.7588 48.2527 59.2086 49.707C59.1216 49.9364 59.0994 50.1879 59.0474 50.4319C58.8588 51.3219 58.9827 52.0812 59.9224 52.5033C60.5199 52.7718 60.6584 53.2994 60.5572 53.8494C60.4603 54.3675 60.2447 54.8677 60.0462 55.3609C59.7092 56.2043 59.2927 57.0177 59.0029 57.873C58.5293 59.281 58.6758 60.573 59.9498 61.5491C60.448 61.9313 60.7057 62.4316 60.6783 63.0479C60.6239 64.281 60.6211 65.5213 60.4504 66.739C60.3365 67.5722 60.18 68.3836 60.552 69.1654C60.8915 69.8753 60.9462 70.5979 60.7728 71.3375C60.562 72.2449 60.7529 73.0583 61.2587 73.8105C61.7172 74.4888 61.8832 75.2355 61.8609 76.0441C61.8462 76.7865 61.8586 77.5312 61.8586 78.2755H61.824C61.824 79.143 61.7966 80.0132 61.8316 80.8815C61.8736 81.9318 62.1091 82.9375 62.8725 83.7241C63.7177 84.5919 64.7269 84.4905 65.374 83.48C65.5447 83.204 65.7039 82.881 65.738 82.5652C65.8496 81.5867 66.0183 80.5905 65.9465 79.6168C65.7801 77.2595 66.0183 75.0017 67.1633 72.8857C67.359 72.5311 67.4185 72.1043 67.565 71.7169C68.1871 70.1047 67.9938 68.5589 67.1883 67.0624L67.072 66.8425C66.6654 66.0389 66.6801 65.2698 67.176 64.4907C67.575 63.8645 67.8751 63.1715 68.2939 62.5575C69.2435 61.1795 69.1094 59.3943 67.2601 58.3172C66.2335 57.7202 65.9758 56.9162 65.9461 55.8711Z" fill="#11B0C8"/>
<path d="M61.1618 38.0604C62.1337 38.8493 63.2663 39.1356 64.4287 38.7162C65.6285 38.2846 66.2061 37.2837 66.3002 36.0241C66.4264 34.333 66.6694 32.6761 67.0783 31.0217C67.517 29.2417 66.4264 28.1393 64.4283 28.4157C64.5351 27.819 64.6439 27.346 64.6987 26.8651C64.8726 25.44 63.8162 24.1137 62.562 24.2567C61.6053 24.3653 60.7152 24.7155 60.0359 25.4649C59.2773 26.3032 59.0121 27.6121 59.6346 28.5543C60.1923 29.3878 60.0288 30.0555 59.6048 30.8373C59.1709 31.6337 58.7596 32.4598 58.4944 33.3178C58.1395 34.4842 58.2883 35.6229 59.2654 36.496C59.8779 37.0397 60.527 37.5447 61.1618 38.0604Z" fill="#11B0C8"/>
<path d="M344.365 103.701V103.938H343.678V105.718H343.401V103.938H342.713V103.701" fill="#11B0C8"/>
<path d="M344.553 103.701H344.945L345.532 105.405L346.115 103.701H346.504V105.718H346.246V104.538L346.249 104.32V104.017L345.666 105.718H345.396L344.798 104.017V104.076L344.813 104.303V105.718H344.553" fill="#11B0C8"/>
</g>
<defs>
<clipPath id="clip0_135_10937">
<rect width="397" height="115.717" fill="white"/>
</clipPath>
</defs>
</svg>
